# Blender 3.1.0
# www.blender.org
o Cube
v -0.172083 -0.346075 1.083455
v -0.172083 -0.409408 1.083455
v -0.172083 -0.346075 1.753744
v -0.172083 -0.409408 1.753744
v -0.273522 -0.346075 1.083455
v -0.273522 -0.409408 1.083455
v -0.273522 -0.346075 1.753744
v -0.273522 -0.409408 1.753744
v 3.136874 -0.065807 -0.229793
v 3.136874 -0.104392 -0.229793
v 3.136874 -0.065807 -0.064184
v 3.136874 -0.104392 -0.064184
v 0.574886 0.124290 -1.045698
v 0.574886 -0.294489 -1.045698
v 0.574886 0.124290 0.751721
v 0.574886 -0.294489 0.751721
v 0.194893 -0.349955 1.748513
v 0.194893 -0.413289 1.078223
v 0.194893 -0.349955 1.078223
v 0.296332 -0.413289 1.748513
v 0.296332 -0.349955 1.748513
v 0.296332 -0.413289 1.078223
v 0.296332 -0.349955 1.078223
v 0.194893 -0.413289 1.748513
v -0.617872 -0.296016 -1.041464
v -0.617872 0.122764 -1.041464
v -0.566808 -0.296016 0.755228
v -0.566808 0.122764 0.755228
v -3.155647 -0.105918 -0.153103
v -3.155647 -0.067333 -0.153103
v -3.150942 -0.105918 0.012439
v -3.150942 -0.067333 0.012439
v -0.029930 -0.135196 2.463833
v -0.029930 -0.134987 2.463833
v -0.622469 -0.424647 -1.043233
v -0.622469 0.321145 -1.081406
v 0.026732 -0.135196 2.463833
v 0.026732 -0.134987 2.463833
v 0.571002 -0.424799 -1.043745
v 0.571002 0.321074 -1.081935
v -0.563969 -0.467161 0.901792
v -0.563969 0.124833 0.767676
v 0.609039 -0.467078 0.902319
v 0.609039 0.124833 0.768210
v -0.323682 -0.424685 -1.043361
v -0.323682 0.321128 -1.081538
v -0.015745 -0.135196 2.463833
v -0.015745 -0.134987 2.463833
v -0.270304 0.124833 0.767809
v -0.270304 -0.467140 0.901924
v 0.288854 0.321091 -1.081810
v 0.013336 -0.135196 2.463833
v 0.331729 0.124833 0.768083
v 0.288854 -0.424763 -1.043624
v 0.013336 -0.134987 2.463833
v 0.331729 -0.467098 0.902195
v -0.029930 -0.135042 2.463833
v -0.622469 0.122649 -1.071246
v 0.571002 0.122557 -1.071770
v 0.026732 -0.135042 2.463833
v 0.609039 -0.032707 0.803904
v -0.563969 -0.032729 0.803371
v -0.015745 -0.135042 2.463833
v -0.323682 0.122626 -0.675636
v 0.013336 -0.135042 2.463833
v 0.288854 0.122579 -0.675906
v -0.622469 -0.290017 -1.050124
v 0.571002 -0.290155 -1.050639
v 0.026732 -0.135158 2.463833
v 0.609039 -0.360227 0.878110
v -0.563969 -0.360295 0.877581
v -0.015745 -0.135158 2.463833
v -0.323682 -0.290051 -0.654512
v 0.013336 -0.135158 2.463833
v 0.288854 -0.290122 -0.654776
v -0.029930 -0.135158 2.463833
vn -0.0000 0.1875 -0.0000
vn -0.0000 -0.0000 0.1875
vn -0.1875 -0.0000 -0.0000
vn -0.0000 -0.1875 -0.0000
vn 0.1875 -0.0000 -0.0000
vn -0.0000 -0.0000 -0.1875
vn 0.0139 0.1870 -0.0000
vn 0.0569 -0.0000 0.1787
vn 0.0139 -0.1870 -0.0000
vn 0.0569 -0.0000 -0.1787
vn -0.1875 -0.0000 0.0053
vn -0.0620 -0.0000 -0.1770
vn -0.0139 0.1870 0.0004
vn -0.0139 -0.1870 0.0004
vn -0.0518 -0.0000 0.1802
vn -0.1874 0.0014 0.0060
vn -0.0984 -0.1434 -0.0701
vn 0.1770 -0.0000 0.0621
vn -0.0000 -0.1834 0.0390
vn -0.0000 0.1854 0.0284
vn -0.0000 0.1865 0.0198
vn -0.0000 -0.1875 -0.0041
vn 0.1875 -0.0009 -0.0039
vn -0.1785 -0.0000 0.0574
vn 0.0943 -0.1456 -0.0712
vn -0.0000 -0.1685 -0.0824
vn -0.0001 -0.0096 -0.1873
vn 0.1496 -0.0058 -0.1130
vn -0.1777 -0.0000 0.0598
vn 0.1875 -0.0008 -0.0037
vn 0.1760 -0.0000 0.0646
vn -0.1526 -0.0056 -0.1088
vn -0.1874 0.0013 0.0057
vn 0.1762 0.0142 0.0627
vn -0.1778 0.0131 0.0580
vn -0.0000 0.1772 -0.0614
vn -0.1874 0.0003 0.0060
vn 0.1875 -0.0002 -0.0039
vn 0.1875 -0.0002 -0.0038
vn -0.1874 0.0003 0.0059
vn -0.1874 0.0003 0.0057
vn -0.0782 0.1611 -0.0558
vn 0.1875 -0.0002 -0.0037
vn -0.1777 -0.0000 0.0599
vn 0.0746 0.1626 -0.0563
vt 0.818781 0.184020
vt 0.907571 0.184556
vt 0.819317 0.095230
vt 0.908107 0.095766
vt 0.729991 0.183484
vt 0.818246 0.272810
vt 0.996361 0.185091
vt 0.907035 0.273345
vt 0.730527 0.094695
vt 0.819852 0.006441
vt 0.817710 0.361600
vt 0.906500 0.362135
vt 0.908642 0.006976
vt 0.996896 0.096301
vt 0.223742 0.792969
vt 0.120008 0.792969
vt 0.223742 0.896703
vt 0.120008 0.896703
vt 0.327476 0.792969
vt 0.223742 0.689235
vt 0.016274 0.792969
vt 0.120008 0.689235
vt 0.327476 0.896703
vt 0.223742 1.000437
vt 0.223742 0.585501
vt 0.120008 0.585501
vt 0.120008 1.000437
vt 0.016274 0.896703
vt 1.001665 0.895532
vt 0.893266 1.003931
vt 0.893266 0.570335
vt 0.676468 0.787133
vt 0.784867 0.678734
vt 1.001665 0.787133
vt 0.893266 0.678734
vt 0.784867 0.895532
vt 0.893266 0.895532
vt 0.784867 0.787133
vt 0.893266 0.787133
vt 0.784867 0.570335
vt 0.784867 1.003931
vt 0.676468 0.895532
vt 0.084976 0.257937
vt -0.001416 0.171545
vt 0.171367 0.257937
vt 0.257758 0.171545
vt -0.001416 0.085154
vt 0.084976 -0.001237
vt 0.257758 0.085154
vt 0.171367 -0.001237
vt 0.084976 0.171545
vt 0.171367 0.171545
vt 0.084976 0.085154
vt 0.171367 0.085154
vt 0.362541 0.241526
vt 0.376629 0.904633
vt 0.515786 0.755090
vt 0.656996 0.570028
vt 0.691518 0.526046
vt 0.638027 0.755090
vt 0.260229 0.528537
vt 0.304003 0.005666
vt 0.376269 0.550240
vt 0.498510 0.550240
vt 0.691518 0.403805
vt 0.426244 0.005666
vt 0.376629 0.782392
vt 0.484782 0.241526
vt 0.515786 0.753091
vt 0.638027 0.753091
vt 0.656996 0.447787
vt 0.625876 0.446070
vt 0.304003 0.127907
vt 0.323562 0.528537
vt 0.376269 0.553340
vt 0.426244 0.127907
vt 0.498510 0.553340
vt 0.659724 0.526697
vt 0.362541 0.161374
vt 0.376269 0.508151
vt 0.515786 0.835243
vt 0.260229 0.570625
vt 0.498510 0.508151
vt 0.691518 0.445893
vt 0.638027 0.835243
vt 0.515786 0.672938
vt 0.376269 0.595429
vt 0.484782 0.161374
vt 0.323562 0.570625
vt 0.625876 0.365918
vt 0.659724 0.568785
vt 0.638027 0.672938
vt 0.498510 0.595429
vt 0.284631 0.657203
vt 0.290832 0.528537
vt 0.304003 0.036269
vt 0.660915 0.403805
vt 0.449505 0.280335
vt 0.426244 0.036269
vt 0.393145 0.241526
vt 0.376629 0.874029
vt 0.660915 0.526046
vt 0.663428 0.274135
vt 0.656996 0.539425
vt 0.660915 0.445893
vt 0.449505 0.322424
vt 0.663428 0.193983
vt 0.290832 0.570625
vt 0.284631 0.699292
vt 0.393145 0.161374
vt 0.386766 0.280335
vt 0.688623 0.526697
vt 0.426244 0.099008
vt 0.455883 0.241526
vt 0.376629 0.811290
vt 0.386766 0.322424
vt 0.600690 0.193983
vt 0.654774 0.365918
vt 0.688623 0.568785
vt 0.294663 0.528537
vt 0.347370 0.657203
vt 0.304003 0.099008
vt 0.600690 0.274135
vt 0.656996 0.476686
vt 0.654774 0.446070
vt 0.294663 0.570625
vt 0.347370 0.699292
vt 0.455884 0.161374
vt 0.624461 0.570028
vt 0.602338 0.755090
vt 0.466335 0.904633
vt 0.393709 0.005665
vt 0.465975 0.550240
vt 0.465975 0.553340
vt 0.393709 0.127907
vt 0.622716 0.446314
vt 0.464590 0.780918
vt 0.604108 0.754565
vt 0.465975 0.595429
vt 0.605492 0.672938
vt 0.605492 0.835243
vt 0.465975 0.508152
vt 0.624461 0.539425
vt 0.466335 0.874029
vt 0.393709 0.036269
vt 0.624461 0.476686
vt 0.466335 0.811291
vt 0.393709 0.099008
vt 0.398336 0.550240
vt 0.326070 0.005665
vt 0.326070 0.127907
vt 0.398336 0.553340
vt 0.538631 0.754580
vt 0.399114 0.780934
vt 0.537853 0.672938
vt 0.398336 0.595429
vt 0.398336 0.508152
vt 0.537853 0.835243
vt 0.398699 0.874029
vt 0.326070 0.036269
vt 0.398700 0.811291
vt 0.326070 0.099008
vt 0.398699 0.904633
vt 0.539016 0.755090
s 0
f 5/5/1 3/3/1 1/1/1
f 3/3/2 8/13/2 4/4/2
f 7/11/3 6/8/3 8/12/3
f 2/2/4 8/14/4 6/7/4
f 1/1/5 4/4/5 2/2/5
f 5/6/6 2/2/6 6/8/6
f 9/15/7 15/23/7 11/17/7
f 11/17/8 16/27/8 12/18/8
f 15/25/3 14/22/3 16/26/3
f 10/16/9 16/28/9 14/21/9
f 9/15/5 12/18/5 10/16/5
f 13/20/10 10/16/10 14/22/10
f 19/34/1 21/37/1 23/39/1
f 21/37/2 24/41/2 20/36/2
f 17/31/3 18/33/3 24/40/3
f 22/38/4 24/42/4 18/32/4
f 23/39/5 20/36/5 22/38/5
f 19/35/6 22/38/6 18/33/6
f 32/54/11 29/51/11 31/53/11
f 30/52/12 25/43/12 29/51/12
f 32/54/13 26/46/13 30/52/13
f 31/53/14 25/44/14 27/47/14
f 28/50/15 31/53/15 27/48/15
f 42/83/16 58/133/16 62/142/16
f 51/113/17 59/135/17 66/148/17
f 61/140/18 38/70/18 60/138/18
f 48/104/2 57/129/2 63/143/2
f 56/128/19 37/68/19 52/114/19
f 49/105/20 34/59/20 48/102/20
f 46/97/21 42/84/21 49/105/21
f 39/74/22 56/126/22 54/120/22
f 59/134/23 44/93/23 61/139/23
f 34/60/24 62/141/24 57/130/24
f 45/95/22 41/82/22 35/61/22
f 51/111/21 49/106/21 53/116/21
f 49/107/20 55/123/20 53/117/20
f 50/110/19 33/55/19 41/79/19
f 55/124/2 63/143/2 65/146/2
f 58/132/25 46/99/25 64/145/25
f 38/71/2 65/146/2 60/136/2
f 53/118/20 38/72/20 44/90/20
f 40/78/21 53/119/21 44/91/21
f 54/121/22 50/109/22 45/94/22
f 50/110/19 52/114/19 47/100/19
f 46/99/26 66/148/26 64/145/26
f 73/160/27 66/148/27 75/162/27
f 60/137/2 74/161/2 69/154/2
f 67/150/28 64/145/28 73/160/28
f 65/147/2 72/159/2 74/161/2
f 57/130/29 71/158/29 76/164/29
f 68/152/30 61/139/30 70/156/30
f 63/144/2 76/163/2 72/159/2
f 70/155/31 60/138/31 69/153/31
f 66/148/32 68/151/32 75/162/32
f 62/142/33 67/149/33 71/157/33
f 71/157/33 35/63/33 41/80/33
f 54/122/27 68/151/27 39/73/27
f 70/155/34 37/69/34 43/86/34
f 72/159/2 33/56/2 47/101/2
f 39/75/30 70/156/30 43/87/30
f 33/57/35 71/158/35 41/81/35
f 74/161/2 47/101/2 52/115/2
f 67/150/27 45/96/27 35/62/27
f 69/154/2 52/115/2 37/67/2
f 45/96/36 75/162/36 54/122/36
f 5/5/1 7/9/1 3/3/1
f 3/3/2 7/10/2 8/13/2
f 7/11/3 5/6/3 6/8/3
f 2/2/4 4/4/4 8/14/4
f 1/1/5 3/3/5 4/4/5
f 5/6/6 1/1/6 2/2/6
f 9/15/7 13/19/7 15/23/7
f 11/17/8 15/24/8 16/27/8
f 15/25/3 13/20/3 14/22/3
f 10/16/9 12/18/9 16/28/9
f 9/15/5 11/17/5 12/18/5
f 13/20/10 9/15/10 10/16/10
f 19/34/1 17/29/1 21/37/1
f 21/37/2 17/30/2 24/41/2
f 17/31/3 19/35/3 18/33/3
f 22/38/4 20/36/4 24/42/4
f 23/39/5 21/37/5 20/36/5
f 19/35/6 23/39/6 22/38/6
f 32/54/11 30/52/11 29/51/11
f 30/52/12 26/45/12 25/43/12
f 32/54/13 28/49/13 26/46/13
f 31/53/14 29/51/14 25/44/14
f 28/50/15 32/54/15 31/53/15
f 42/83/37 36/64/37 58/133/37
f 51/113/27 40/76/27 59/135/27
f 61/140/34 44/92/34 38/70/34
f 48/104/2 34/58/2 57/129/2
f 56/128/19 43/88/19 37/68/19
f 49/105/20 42/84/20 34/59/20
f 46/97/21 36/65/21 42/84/21
f 39/74/22 43/89/22 56/126/22
f 59/134/38 40/77/38 44/93/38
f 34/60/35 42/85/35 62/141/35
f 45/95/22 50/108/22 41/82/22
f 51/111/21 46/98/21 49/106/21
f 49/107/20 48/103/20 55/123/20
f 50/110/19 47/100/19 33/55/19
f 55/124/2 48/104/2 63/143/2
f 58/132/27 36/66/27 46/99/27
f 38/71/2 55/124/2 65/146/2
f 53/118/20 55/125/20 38/72/20
f 40/78/21 51/112/21 53/119/21
f 54/121/22 56/127/22 50/109/22
f 50/110/19 56/128/19 52/114/19
f 46/99/26 51/113/26 66/148/26
f 73/160/27 64/145/27 66/148/27
f 60/137/2 65/147/2 74/161/2
f 67/150/28 58/132/28 64/145/28
f 65/147/2 63/144/2 72/159/2
f 57/130/35 62/141/35 71/158/35
f 68/152/39 59/134/39 61/139/39
f 63/144/2 57/131/2 76/163/2
f 70/155/34 61/140/34 60/138/34
f 66/148/32 59/135/32 68/151/32
f 62/142/40 58/133/40 67/149/40
f 71/157/41 67/149/41 35/63/41
f 54/122/42 75/162/42 68/151/42
f 70/155/31 69/153/31 37/69/31
f 72/159/2 76/163/2 33/56/2
f 39/75/43 68/152/43 70/156/43
f 33/57/44 76/164/44 71/158/44
f 74/161/2 72/159/2 47/101/2
f 67/150/45 73/160/45 45/96/45
f 69/154/2 74/161/2 52/115/2
f 45/96/36 73/160/36 75/162/36
